<svg version="1.1" xmlns="http://www.w3.org/2000/svg" xmlns:xlink="http://www.w3.org/1999/xlink" x="0px" y="0px" viewBox="0 0 40 40" style="enable-background:new 0 0 40 40;" xml:space="preserve"> <g> <rect x="19.3" y="13.3" transform="matrix(0.7071 -0.7071 0.7071 0.7071 -6.5165 19.2678)" width="1.4" height="8.5"/> <rect x="19.3" y="18.3" transform="matrix(-0.7071 -0.7071 0.7071 -0.7071 18.2322 52.552)" width="1.4" height="8.5"/> </g> <g> <path d="M20,1c10.5,0,19,8.5,19,19s-8.5,19-19,19S1,30.5,1,20S9.5,1,20,1 M20,0C9,0,0,9,0,20s9,20,20,20s20-9,20-20S31,0,20,0L20,0&#10; z"/> </g> </svg>