<svg version="1.1" id="testimonial-quote1" xmlns="http://www.w3.org/2000/svg" xmlns:xlink="http://www.w3.org/1999/xlink" x="0px" y="0px" viewBox="0 0 250 182" style="enable-background:new 0 0 250 182;" xml:space="preserve"> <g> <path d="M60,181.8l-1.4-1.3c-1.1-1.1-2.4-2.4-4.2-4.2l-0.3-0.3c-2.4-2.5-5.7-5.8-10.7-10.9l-1.1-1.1l0.9-1.3&#10; c18.4-28.3,15.2-48.8,13.8-51.4c-0.4-0.8-1.3-1.3-2.2-1.3C24.6,109.8,0,85.2,0,55C0,24.8,24.6,0.2,54.8,0.2&#10; c29.4,0,52.5,23.1,54.8,55c5,68.6-35.6,113.2-48.2,125.3L60,181.8z M47.3,163.4c4.4,4.4,7.4,7.5,9.6,9.8l0.3,0.3&#10; c1.1,1.1,2,2,2.8,2.8c13.6-13.5,50.3-56.3,45.6-120.8C103.5,25.7,82.1,4.1,54.8,4.1C26.8,4.1,3.9,27,3.9,55&#10; c0,28.1,22.8,50.9,50.9,50.9c2.3,0,4.5,1.4,5.6,3.4C62.4,113,65.9,133.9,47.3,163.4z"/> <path d="M200,181.8l-1.4-1.3c-1.1-1.1-2.4-2.4-4.3-4.3l-0.2-0.2c-2.4-2.5-5.7-5.8-10.7-10.9l-1.1-1.1l0.9-1.3&#10; c18.4-28.3,15.2-48.8,13.8-51.4c-0.4-0.8-1.3-1.3-2.2-1.3c-30.2,0-54.8-24.6-54.8-54.8c0-30.2,24.6-54.8,54.8-54.8&#10; c29.4,0,52.5,23.1,54.8,55c5,68.6-35.6,113.2-48.2,125.3L200,181.8z M187.2,163.4c4.4,4.4,7.4,7.5,9.6,9.8l0.2,0.2&#10; c1.2,1.2,2.1,2.1,2.9,2.9c13.6-13.5,50.3-56.2,45.6-120.8c-2.2-29.7-23.6-51.3-50.9-51.3c-28.1,0-50.9,22.8-50.9,50.9&#10; c0,28.1,22.8,50.9,50.9,50.9c2.3,0,4.5,1.4,5.6,3.4C202.3,113,205.9,133.9,187.2,163.4z"/> </g> </svg>